# xmcd
#
# Track frame offsets: 
#        150
#        11777
#        23433
#        37849
#        45729
#        59199
#        71092
#        84529
#        98885
#        108670
#        123566
#        132595
#
# Disc length: 2015 seconds
#
# Revision: 1
# Processed by: cddbd v1.5.1PL0 Copyright (c) Steve Scherf et al.
# Submitted via: ExactAudioCopy v0.95b3
#
DISCID=a907dd0c
DTITLE=Velvet Crush - Soft Sounds
DYEAR=2002
DGENRE=Indie
TTITLE0=Staying Found
TTITLE1=Don't Let Me Down
TTITLE2=Rollin' In My Sleep
TTITLE3=Some Kind Of Light
TTITLE4=Save Me A Place
TTITLE5=In Your Time
TTITLE6=Forever, For Now
TTITLE7=She Goes On
TTITLE8=Vanishing Point
TTITLE9=Duchess
TTITLE10=Party Line (Samba)
TTITLE11=Late In The Day
EXTD=
EXTT0=
EXTT1=
EXTT2=
EXTT3=
EXTT4=
EXTT5=
EXTT6=
EXTT7=
EXTT8=
EXTT9=
EXTT10=
EXTT11=
PLAYORDER=
